<svg xmlns="http://www.w3.org/2000/svg" width="187" height="48" viewBox="0 0 187 48" fill="none"><path d="M33.8643 41.28H15.1071C11.7612 41.28 9.02371 38.5516 9.02371 35.2169V24.3537L22.5593 38.0463C24.8406 40.3706 28.592 40.4211 30.924 38.1474C31.7351 37.2884 32.1913 36.379 32.4448 35.4695C32.4448 35.419 32.4448 35.419 32.4448 35.3684C32.4448 35.3179 32.4448 35.2674 32.4955 35.2169C32.5462 35.0148 32.5969 34.7621 32.5969 34.56C32.5969 34.3074 32.6476 34.0548 32.5969 33.8021C32.4955 31.7811 31.1774 29.8611 28.9975 28.2948C28.9975 28.2948 28.9469 28.2948 28.9469 28.2442C26.4121 26.4253 22.6607 25.1116 18.3516 24.7074C12.6231 24.2021 10.3925 20.8169 9.53066 18.0884C9.1758 17.179 9.02371 16.1684 9.02371 15.1579C9.02371 14.8042 9.02371 14.6527 9.02371 14.6527C9.07441 13.9453 9.1758 13.2884 9.37858 12.6821H0V30.2148C0 40.0169 9.42927 48 21.0384 48H41.7727V35.6716C40.6574 38.9558 37.5143 41.28 33.8643 41.28Z" fill="#BB0B0B"></path><path d="M17.4396 6.72H36.1967C39.5426 6.72 42.2801 9.44842 42.2801 12.7832V23.6463L28.7446 9.95368C26.4633 7.62947 22.7119 7.62947 20.3799 9.90316C19.5688 10.7621 19.1125 11.6716 18.859 12.5811C18.859 12.6316 18.859 12.6316 18.859 12.6821C18.859 12.7326 18.859 12.7832 18.8084 12.8337C18.7577 13.0358 18.707 13.2884 18.707 13.4905C18.707 13.7432 18.6563 13.9958 18.707 14.2484C18.8084 16.2695 20.1264 18.1895 22.3063 19.7558C22.3063 19.7558 22.357 19.7558 22.357 19.8063C24.8918 21.6253 28.6432 22.9389 32.9523 23.3432C38.6808 23.8484 40.9114 27.2337 41.7732 29.9621C42.1281 30.8716 42.2801 31.8821 42.2801 32.8926C42.2801 33.2463 42.2801 33.3979 42.2801 33.3979C42.2294 34.1053 42.1281 34.7621 41.9253 35.3684H51.3546V17.8358C51.3039 7.98316 41.8746 0 30.2147 0H9.48047V12.3284C10.6465 9.09474 13.7895 6.72 17.4396 6.72Z" fill="#00224C"></path><path d="M69.8597 5.50714C67.2235 5.50714 65.9054 6.36609 65.9054 8.13451C65.9054 8.8924 66.2096 9.49872 66.8686 9.90293C67.5277 10.3071 69.0485 10.9135 71.4819 11.6714C73.9153 12.4292 75.5882 13.3387 76.5514 14.2987C77.5146 15.2587 78.0215 16.7745 78.0215 18.8461C78.0215 21.4229 77.2104 23.3935 75.6389 24.7577C74.0673 26.0714 71.9888 26.7787 69.4541 26.7787C67.5784 26.7787 65.2464 26.4756 62.4582 25.9198L61.1401 25.6671L61.6471 21.7766C64.8915 22.2313 67.4263 22.4335 69.1499 22.4335C71.7354 22.4335 73.0027 21.3724 73.0027 19.2503C73.0027 18.4924 72.6986 17.8861 72.0902 17.4314C71.4819 16.9766 70.3159 16.5219 68.5416 16.0166C65.7027 15.2082 63.7256 14.2482 62.5596 13.1366C61.3936 12.025 60.8359 10.5092 60.8359 8.53872C60.8359 6.06293 61.5964 4.24398 63.1172 3.03135C64.6381 1.81872 66.7166 1.2124 69.302 1.2124C71.127 1.2124 73.4083 1.46503 76.1458 1.91977L77.4639 2.1724L77.0583 6.11346C73.7125 5.70925 71.2791 5.50714 69.8597 5.50714Z" fill="#00224C"></path><path d="M79.8477 6.01223V1.56592H98.0979V6.01223H91.5075V26.3238H86.4887V6.01223H79.8477Z" fill="#00224C"></path><path d="M97.8438 26.3238L103.42 1.56592H113.002L118.578 26.3238H113.559L112.596 21.827H103.927L102.964 26.3238H97.8438ZM107.324 5.70908L104.789 17.4817H111.582L109.047 5.70908H107.324Z" fill="#00224C"></path><path d="M126.941 18.0375V26.3238H121.922V1.56592H131.554C137.384 1.56592 140.324 4.29434 140.324 9.70065C140.324 12.9343 139.107 15.3091 136.674 16.8249L140.223 26.2733H134.697L131.807 18.0375H126.941ZM134.291 12.6312C134.9 11.9238 135.153 10.9638 135.153 9.75118C135.153 8.53855 134.849 7.62908 134.241 6.92171C133.632 6.21434 132.72 5.86065 131.554 5.86065H126.941V13.7428H131.605C132.821 13.7428 133.683 13.3385 134.291 12.6312Z" fill="#00224C"></path><path d="M142.305 6.01223V1.56592H160.555V6.01223H153.965V26.3238H148.946V6.01223H142.305Z" fill="#00224C"></path><path d="M177.839 26.3238H163.746V1.56592H168.765V21.8775H177.839V26.3238Z" fill="#00224C"></path><path d="M180.984 26.3238V1.56592H186.003V26.3238H180.984Z" fill="#00224C"></path><path d="M60.3281 38.3491H63.3698C64.1809 38.3491 64.84 38.5007 65.2455 38.8544C65.6511 39.2081 65.8539 39.7133 65.8539 40.4712C65.8539 40.9765 65.7525 41.4312 65.6004 41.6839C65.3976 41.987 65.1442 42.1891 64.7893 42.3912C65.7018 42.6944 66.1074 43.3512 66.1074 44.3618C66.1074 45.2207 65.9046 45.827 65.4483 46.1807C64.9921 46.5344 64.333 46.7365 63.5219 46.7365H60.3281V38.3491ZM63.3191 39.2081H61.2406V42.0881H63.4205C63.9275 42.0881 64.333 41.987 64.5358 41.7344C64.7893 41.4818 64.8907 41.1281 64.8907 40.6228C64.8907 40.1175 64.7386 39.7639 64.4851 39.5618C64.2316 39.3596 63.8768 39.2081 63.3191 39.2081ZM63.4205 42.8965H61.2406V45.9281H63.4712C64.0289 45.9281 64.4344 45.827 64.7386 45.5744C65.0428 45.3218 65.1948 44.9175 65.1948 44.3618C65.1948 44.0586 65.1442 43.806 65.0428 43.6039C64.9414 43.4018 64.7893 43.2502 64.5865 43.1491C64.1809 42.9975 63.8261 42.8965 63.4205 42.8965Z" fill="#BB0B0B"></path><path d="M70.6194 44.2102C70.6194 45.4228 71.2784 46.0291 72.5965 46.0291C73.2555 46.0291 73.8132 45.8775 74.1173 45.5744C74.4722 45.2712 74.6243 44.8165 74.6243 44.2102V38.3491H75.5368V44.2102C75.5368 45.1702 75.2833 45.827 74.7764 46.2312C74.2694 46.6354 73.5597 46.8375 72.5458 46.8375C71.5319 46.8375 70.8221 46.6354 70.3659 46.2312C69.8589 45.827 69.6055 45.1196 69.6055 44.2102V38.3491H70.518V44.2102H70.6194Z" fill="#BB0B0B"></path><path d="M81.8742 39.0562C80.6576 39.0562 80.0492 39.511 80.0492 40.4204C80.0492 40.9257 80.2013 41.2794 80.4548 41.4815C80.759 41.6836 81.3166 41.8857 82.1784 42.0373C83.0402 42.2394 83.6486 42.492 84.0034 42.7952C84.3583 43.0983 84.5611 43.6036 84.5611 44.311C84.5611 46.0289 83.6486 46.8878 81.8742 46.8878C81.2659 46.8878 80.5562 46.8373 79.6437 46.6857L79.1874 46.6352L79.2888 45.8773C80.4041 46.0289 81.2152 46.0794 81.8235 46.0794C83.0402 46.0794 83.6486 45.5236 83.6486 44.412C83.6486 43.9573 83.4965 43.6541 83.243 43.452C82.9895 43.2499 82.4826 43.0983 81.7729 42.9468C80.8097 42.7447 80.1506 42.492 79.7451 42.1889C79.3395 41.8857 79.1367 41.3299 79.1367 40.572C79.1367 39.0562 80.0492 38.2983 81.8742 38.2983C82.4826 38.2983 83.1923 38.3489 84.0034 38.5004L84.409 38.551L84.3076 39.3594C83.1416 39.1068 82.3305 39.0562 81.8742 39.0562Z" fill="#BB0B0B"></path><path d="M88.1094 46.7365V38.3491H89.0219V46.7365H88.1094Z" fill="#BB0B0B"></path><path d="M93.0273 46.7365V38.3491H94.8017L98.0461 45.9281H98.2996V38.3491H99.2121V46.7365H97.4885L94.1933 39.1575H93.9399V46.7365H93.0273Z" fill="#BB0B0B"></path><path d="M103.215 46.7365V38.3491H108.335V39.1575H104.127V42.0375H107.575V42.846H104.127V45.8775H108.335V46.686H103.215V46.7365Z" fill="#BB0B0B"></path><path d="M114.167 39.0562C112.951 39.0562 112.342 39.511 112.342 40.4204C112.342 40.9257 112.494 41.2794 112.748 41.4815C113.052 41.6836 113.61 41.8857 114.471 42.0373C115.333 42.2394 115.942 42.492 116.296 42.7952C116.651 43.0983 116.854 43.6036 116.854 44.311C116.854 46.0289 115.942 46.8878 114.167 46.8878C113.559 46.8878 112.849 46.8373 111.937 46.6857L111.48 46.6352L111.582 45.8773C112.697 46.0289 113.508 46.0794 114.117 46.0794C115.333 46.0794 115.942 45.5236 115.942 44.412C115.942 43.9573 115.789 43.6541 115.536 43.452C115.283 43.2499 114.776 43.0983 114.066 42.9468C113.103 42.7447 112.444 42.492 112.038 42.1889C111.632 41.8857 111.43 41.3299 111.43 40.572C111.43 39.0562 112.342 38.2983 114.167 38.2983C114.776 38.2983 115.485 38.3489 116.296 38.5004L116.702 38.551L116.601 39.3594C115.435 39.1068 114.623 39.0562 114.167 39.0562Z" fill="#BB0B0B"></path><path d="M122.683 39.0562C121.466 39.0562 120.858 39.511 120.858 40.4204C120.858 40.9257 121.01 41.2794 121.263 41.4815C121.568 41.6836 122.125 41.8857 122.987 42.0373C123.849 42.2394 124.457 42.492 124.812 42.7952C125.167 43.0983 125.37 43.6036 125.37 44.311C125.37 46.0289 124.457 46.8878 122.683 46.8878C122.075 46.8878 121.365 46.8373 120.452 46.6857L119.996 46.6352L120.097 45.8773C121.213 46.0289 122.024 46.0794 122.632 46.0794C123.849 46.0794 124.457 45.5236 124.457 44.412C124.457 43.9573 124.305 43.6541 124.052 43.452C123.798 43.2499 123.291 43.0983 122.581 42.9468C121.618 42.7447 120.959 42.492 120.554 42.1889C120.148 41.8857 119.945 41.3299 119.945 40.572C119.945 39.0562 120.858 38.2983 122.683 38.2983C123.291 38.2983 124.001 38.3489 124.812 38.5004L125.218 38.551L125.116 39.3594C123.95 39.1068 123.19 39.0562 122.683 39.0562Z" fill="#BB0B0B"></path><path d="M132.82 46.7365L135.152 38.3491H137.18L139.512 46.7365H138.6L137.991 44.5639H134.341L133.733 46.7365H132.82ZM135.811 39.1575L134.544 43.7554H137.738L136.47 39.1575H135.811Z" fill="#BB0B0B"></path><path d="M145.9 43.3007V42.4417H148.232V46.5849C147.218 46.787 146.306 46.8881 145.494 46.8881C144.278 46.8881 143.416 46.5344 142.96 45.827C142.503 45.1196 142.25 44.0586 142.25 42.5933C142.25 41.128 142.503 40.0165 142.96 39.3091C143.416 38.6017 144.278 38.248 145.494 38.248C146.255 38.248 147.015 38.3491 147.826 38.5007L148.232 38.5512L148.181 39.3091C147.167 39.1575 146.306 39.0565 145.545 39.0565C144.633 39.0565 143.974 39.3091 143.669 39.8649C143.365 40.4207 143.163 41.2796 143.163 42.5428C143.163 43.8059 143.315 44.6649 143.669 45.2207C143.974 45.7765 144.633 46.0291 145.545 46.0291C146.103 46.0291 146.711 45.9786 147.269 45.8775V43.3007H145.9Z" fill="#BB0B0B"></path><path d="M152.035 46.7365V38.3491H157.155V39.1575H152.948V42.0375H156.395V42.846H152.948V45.8775H157.155V46.686H152.035V46.7365Z" fill="#BB0B0B"></path><path d="M160.703 46.7365V38.3491H162.477L165.722 45.9281H165.975V38.3491H166.888V46.7365H165.164L161.869 39.1575H161.616V46.7365H160.703Z" fill="#BB0B0B"></path><path d="M175.963 46.6354C175.152 46.787 174.392 46.8881 173.733 46.8881C173.074 46.8881 172.516 46.787 172.111 46.6354C171.705 46.4333 171.401 46.1807 171.147 45.7765C170.945 45.3723 170.793 44.968 170.691 44.4628C170.59 43.9575 170.539 43.3512 170.539 42.5933C170.539 41.8354 170.59 41.2291 170.691 40.7238C170.793 40.2186 170.945 39.7638 171.147 39.3596C171.35 38.9554 171.705 38.7028 172.111 38.5007C172.516 38.2986 173.023 38.248 173.682 38.248C174.341 38.248 175.102 38.3491 175.963 38.5007L175.913 39.3091C175.102 39.1575 174.341 39.107 173.733 39.107C172.82 39.107 172.263 39.3596 171.959 39.9154C171.654 40.4207 171.502 41.3302 171.502 42.6438C171.502 43.3007 171.553 43.8059 171.604 44.1596C171.654 44.5638 171.756 44.9175 171.908 45.2207C172.06 45.5238 172.263 45.7765 172.567 45.8775C172.871 45.9786 173.277 46.0796 173.885 46.0796C174.493 46.0796 175.152 46.0291 175.913 45.8775L175.963 46.6354Z" fill="#BB0B0B"></path><path d="M182.15 46.7365H181.238V43.1996L178.551 38.3491H179.615L181.694 42.2902L183.772 38.3491H184.837L182.15 43.1996V46.7365Z" fill="#BB0B0B"></path></svg>